<?xml version="1.0" encoding="UTF-8" standalone="no"?>
<!DOCTYPE svg PUBLIC "-//W3C//DTD SVG 1.1//EN"
 "http://www.w3.org/Graphics/SVG/1.1/DTD/svg11.dtd">
<!-- Generated by graphviz version 5.0.0 (20220707.1540)
 -->
<!-- Title: dependencies Pages: 1 -->
<svg width="1130pt" height="247pt"
 viewBox="0.00 0.00 1130.00 246.80" xmlns="http://www.w3.org/2000/svg" xmlns:xlink="http://www.w3.org/1999/xlink">
<g id="graph0" class="graph" transform="scale(1 1) rotate(0) translate(4 242.8)">
<title>dependencies</title>
<polygon fill="white" stroke="transparent" points="-4,4 -4,-242.8 1126,-242.8 1126,4 -4,4"/>
<text text-anchor="middle" x="561" y="-8.2" font-family="sans-serif" font-size="14.00">dependencies</text>
<g id="clust1" class="cluster">
<title>cluster_AppModule</title>
<polygon fill="none" stroke="black" stroke-dasharray="1,5" points="8,-32.8 8,-230.8 1114,-230.8 1114,-32.8 8,-32.8"/>
</g>
<g id="clust2" class="cluster">
<title>cluster_AppModule_declarations</title>
<polygon fill="none" stroke="black" points="168,-40.8 168,-92.8 1106,-92.8 1106,-40.8 168,-40.8"/>
</g>
<g id="clust10" class="cluster">
<title>cluster_AppModule_imports</title>
<polygon fill="none" stroke="black" points="16,-40.8 16,-92.8 160,-92.8 160,-40.8 16,-40.8"/>
</g>
<g id="clust12" class="cluster">
<title>cluster_AppModule_bootstrap</title>
<polygon fill="none" stroke="black" points="512,-170.8 512,-222.8 636,-222.8 636,-170.8 512,-170.8"/>
</g>
<!-- AppComponent -->
<g id="node1" class="node">
<title>AppComponent</title>
<polygon fill="#ffffb3" stroke="black" points="1097.94,-84.8 992.06,-84.8 992.06,-48.8 1097.94,-48.8 1097.94,-84.8"/>
<text text-anchor="middle" x="1045" y="-62.6" font-family="Times,serif" font-size="14.00">AppComponent</text>
</g>
<!-- AppModule -->
<g id="node8" class="node">
<title>AppModule</title>
<polygon fill="#8dd3c7" stroke="black" points="615.66,-149.8 612.66,-153.8 591.66,-153.8 588.66,-149.8 532.34,-149.8 532.34,-113.8 615.66,-113.8 615.66,-149.8"/>
<text text-anchor="middle" x="574" y="-127.6" font-family="Times,serif" font-size="14.00">AppModule</text>
</g>
<!-- AppComponent&#45;&gt;AppModule -->
<g id="edge1" class="edge">
<title>AppComponent&#45;&gt;AppModule</title>
<path fill="none" stroke="black" d="M1045,-85.09C1045,-107.01 1045,-140.8 1045,-140.8 1045,-140.8 625.8,-140.8 625.8,-140.8"/>
<polygon fill="black" stroke="black" points="625.8,-137.3 615.8,-140.8 625.8,-144.3 625.8,-137.3"/>
</g>
<!-- HistoryComponent -->
<g id="node2" class="node">
<title>HistoryComponent</title>
<polygon fill="#ffffb3" stroke="black" points="974.83,-84.8 851.17,-84.8 851.17,-48.8 974.83,-48.8 974.83,-84.8"/>
<text text-anchor="middle" x="913" y="-62.6" font-family="Times,serif" font-size="14.00">HistoryComponent</text>
</g>
<!-- HistoryComponent&#45;&gt;AppModule -->
<g id="edge2" class="edge">
<title>HistoryComponent&#45;&gt;AppModule</title>
<path fill="none" stroke="black" d="M913,-84.91C913,-104.14 913,-131.8 913,-131.8 913,-131.8 625.91,-131.8 625.91,-131.8"/>
<polygon fill="black" stroke="black" points="625.91,-128.3 615.91,-131.8 625.91,-135.3 625.91,-128.3"/>
</g>
<!-- HomeComponent -->
<g id="node3" class="node">
<title>HomeComponent</title>
<polygon fill="#ffffb3" stroke="black" points="833.55,-84.8 718.45,-84.8 718.45,-48.8 833.55,-48.8 833.55,-84.8"/>
<text text-anchor="middle" x="776" y="-62.6" font-family="Times,serif" font-size="14.00">HomeComponent</text>
</g>
<!-- HomeComponent&#45;&gt;AppModule -->
<g id="edge3" class="edge">
<title>HomeComponent&#45;&gt;AppModule</title>
<path fill="none" stroke="black" d="M776,-84.83C776,-101.2 776,-122.8 776,-122.8 776,-122.8 625.85,-122.8 625.85,-122.8"/>
<polygon fill="black" stroke="black" points="625.85,-119.3 615.85,-122.8 625.85,-126.3 625.85,-119.3"/>
</g>
<!-- LoginComponent -->
<g id="node4" class="node">
<title>LoginComponent</title>
<polygon fill="#ffffb3" stroke="black" points="700.27,-84.8 585.73,-84.8 585.73,-48.8 700.27,-48.8 700.27,-84.8"/>
<text text-anchor="middle" x="643" y="-62.6" font-family="Times,serif" font-size="14.00">LoginComponent</text>
</g>
<!-- LoginComponent&#45;&gt;AppModule -->
<g id="edge4" class="edge">
<title>LoginComponent&#45;&gt;AppModule</title>
<path fill="none" stroke="black" d="M600.72,-84.91C600.72,-84.91 600.72,-103.79 600.72,-103.79"/>
<polygon fill="black" stroke="black" points="597.22,-103.79 600.72,-113.79 604.22,-103.79 597.22,-103.79"/>
</g>
<!-- NavbarComponent -->
<g id="node5" class="node">
<title>NavbarComponent</title>
<polygon fill="#ffffb3" stroke="black" points="567.03,-84.8 444.97,-84.8 444.97,-48.8 567.03,-48.8 567.03,-84.8"/>
<text text-anchor="middle" x="506" y="-62.6" font-family="Times,serif" font-size="14.00">NavbarComponent</text>
</g>
<!-- NavbarComponent&#45;&gt;AppModule -->
<g id="edge5" class="edge">
<title>NavbarComponent&#45;&gt;AppModule</title>
<path fill="none" stroke="black" d="M549.72,-84.91C549.72,-84.91 549.72,-103.79 549.72,-103.79"/>
<polygon fill="black" stroke="black" points="546.22,-103.79 549.72,-113.79 553.22,-103.79 546.22,-103.79"/>
</g>
<!-- SignupComponent -->
<g id="node6" class="node">
<title>SignupComponent</title>
<polygon fill="#ffffb3" stroke="black" points="426.51,-84.8 305.49,-84.8 305.49,-48.8 426.51,-48.8 426.51,-84.8"/>
<text text-anchor="middle" x="366" y="-62.6" font-family="Times,serif" font-size="14.00">SignupComponent</text>
</g>
<!-- SignupComponent&#45;&gt;AppModule -->
<g id="edge6" class="edge">
<title>SignupComponent&#45;&gt;AppModule</title>
<path fill="none" stroke="black" d="M366,-84.83C366,-101.2 366,-122.8 366,-122.8 366,-122.8 521.91,-122.8 521.91,-122.8"/>
<polygon fill="black" stroke="black" points="521.91,-126.3 531.91,-122.8 521.91,-119.3 521.91,-126.3"/>
</g>
<!-- ViewComponent -->
<g id="node7" class="node">
<title>ViewComponent</title>
<polygon fill="#ffffb3" stroke="black" points="287.66,-84.8 176.34,-84.8 176.34,-48.8 287.66,-48.8 287.66,-84.8"/>
<text text-anchor="middle" x="232" y="-62.6" font-family="Times,serif" font-size="14.00">ViewComponent</text>
</g>
<!-- ViewComponent&#45;&gt;AppModule -->
<g id="edge7" class="edge">
<title>ViewComponent&#45;&gt;AppModule</title>
<path fill="none" stroke="black" d="M232,-84.91C232,-104.14 232,-131.8 232,-131.8 232,-131.8 522.06,-131.8 522.06,-131.8"/>
<polygon fill="black" stroke="black" points="522.06,-135.3 532.06,-131.8 522.06,-128.3 522.06,-135.3"/>
</g>
<!-- AppComponent  -->
<g id="node10" class="node">
<title>AppComponent </title>
<polygon fill="#80b1d3" stroke="black" points="628.44,-214.8 519.56,-214.8 519.56,-178.8 628.44,-178.8 628.44,-214.8"/>
<text text-anchor="middle" x="574" y="-192.6" font-family="Times,serif" font-size="14.00">AppComponent </text>
</g>
<!-- AppModule&#45;&gt;AppComponent  -->
<g id="edge9" class="edge">
<title>AppModule&#45;&gt;AppComponent </title>
<path fill="none" stroke="black" stroke-dasharray="1,5" d="M574,-149.91C574,-149.91 574,-168.79 574,-168.79"/>
<polygon fill="black" stroke="black" points="570.5,-168.79 574,-178.79 577.5,-168.79 570.5,-168.79"/>
</g>
<!-- AppRoutingModule -->
<g id="node9" class="node">
<title>AppRoutingModule</title>
<polygon fill="#8dd3c7" stroke="black" points="152.28,-84.8 149.28,-88.8 128.28,-88.8 125.28,-84.8 23.72,-84.8 23.72,-48.8 152.28,-48.8 152.28,-84.8"/>
<text text-anchor="middle" x="88" y="-62.6" font-family="Times,serif" font-size="14.00">AppRoutingModule</text>
</g>
<!-- AppRoutingModule&#45;&gt;AppModule -->
<g id="edge8" class="edge">
<title>AppRoutingModule&#45;&gt;AppModule</title>
<path fill="none" stroke="black" d="M88,-85.09C88,-107.01 88,-140.8 88,-140.8 88,-140.8 522.14,-140.8 522.14,-140.8"/>
<polygon fill="black" stroke="black" points="522.14,-144.3 532.14,-140.8 522.14,-137.3 522.14,-144.3"/>
</g>
</g>
</svg>
