<?xml version="1.0" encoding="UTF-8" standalone="no"?>
<!DOCTYPE svg PUBLIC "-//W3C//DTD SVG 1.1//EN"
 "http://www.w3.org/Graphics/SVG/1.1/DTD/svg11.dtd">
<!-- Generated by graphviz version 2.47.0 (20210316.0004)
 -->
<!-- Title: dependencies Pages: 1 -->
<svg width="1313pt" height="284pt"
 viewBox="0.00 0.00 1313.00 284.00" xmlns="http://www.w3.org/2000/svg" xmlns:xlink="http://www.w3.org/1999/xlink">
<g id="graph0" class="graph" transform="scale(1 1) rotate(0) translate(4 280)">
<title>dependencies</title>
<polygon fill="white" stroke="transparent" points="-4,4 -4,-280 1309,-280 1309,4 -4,4"/>
<text text-anchor="start" x="631.51" y="-42.4" font-family="Times-12" font-weight="bold" font-size="14.00">Legend</text>
<polygon fill="#ffffb3" stroke="transparent" points="418.5,-10 418.5,-30 438.5,-30 438.5,-10 418.5,-10"/>
<text text-anchor="start" x="442.13" y="-15.4" font-family="Times-12" font-size="14.00"> &#160;Declarations</text>
<polygon fill="#8dd3c7" stroke="transparent" points="531.5,-10 531.5,-30 551.5,-30 551.5,-10 531.5,-10"/>
<text text-anchor="start" x="555.23" y="-15.4" font-family="Times-12" font-size="14.00"> &#160;Module</text>
<polygon fill="#80b1d3" stroke="transparent" points="617.5,-10 617.5,-30 637.5,-30 637.5,-10 617.5,-10"/>
<text text-anchor="start" x="641.28" y="-15.4" font-family="Times-12" font-size="14.00"> &#160;Bootstrap</text>
<polygon fill="#fdb462" stroke="transparent" points="714.5,-10 714.5,-30 734.5,-30 734.5,-10 714.5,-10"/>
<text text-anchor="start" x="738.17" y="-15.4" font-family="Times-12" font-size="14.00"> &#160;Providers</text>
<polygon fill="#fb8072" stroke="transparent" points="810.5,-10 810.5,-30 830.5,-30 830.5,-10 810.5,-10"/>
<text text-anchor="start" x="834.23" y="-15.4" font-family="Times-12" font-size="14.00"> &#160;Exports</text>
<g id="clust1" class="cluster">
<title>cluster_AppModule</title>
<polygon fill="none" stroke="black" stroke-dasharray="1,5" points="8,-70 8,-268 1297,-268 1297,-70 8,-70"/>
</g>
<g id="clust2" class="cluster">
<title>cluster_AppModule_declarations</title>
<polygon fill="none" stroke="black" points="168,-78 168,-130 1289,-130 1289,-78 168,-78"/>
</g>
<g id="clust11" class="cluster">
<title>cluster_AppModule_imports</title>
<polygon fill="none" stroke="black" points="16,-78 16,-130 160,-130 160,-78 16,-78"/>
</g>
<g id="clust13" class="cluster">
<title>cluster_AppModule_bootstrap</title>
<polygon fill="none" stroke="black" points="606,-208 606,-260 730,-260 730,-208 606,-208"/>
</g>
<!-- AppComponent -->
<g id="node1" class="node">
<title>AppComponent</title>
<polygon fill="#ffffb3" stroke="black" points="1280.94,-122 1175.06,-122 1175.06,-86 1280.94,-86 1280.94,-122"/>
<text text-anchor="middle" x="1228" y="-99.8" font-family="Times,serif" font-size="14.00">AppComponent</text>
</g>
<!-- AppModule -->
<g id="node9" class="node">
<title>AppModule</title>
<polygon fill="#8dd3c7" stroke="black" points="709.66,-187 706.66,-191 685.66,-191 682.66,-187 626.34,-187 626.34,-151 709.66,-151 709.66,-187"/>
<text text-anchor="middle" x="668" y="-164.8" font-family="Times,serif" font-size="14.00">AppModule</text>
</g>
<!-- AppComponent&#45;&gt;AppModule -->
<g id="edge1" class="edge">
<title>AppComponent&#45;&gt;AppModule</title>
<path fill="none" stroke="black" d="M1228,-122.01C1228,-144.49 1228,-180 1228,-180 1228,-180 720.09,-180 720.09,-180"/>
<polygon fill="black" stroke="black" points="720.09,-176.5 710.09,-180 720.09,-183.5 720.09,-176.5"/>
</g>
<!-- HistoryComponent -->
<g id="node2" class="node">
<title>HistoryComponent</title>
<polygon fill="#ffffb3" stroke="black" points="1157.83,-122 1034.17,-122 1034.17,-86 1157.83,-86 1157.83,-122"/>
<text text-anchor="middle" x="1096" y="-99.8" font-family="Times,serif" font-size="14.00">HistoryComponent</text>
</g>
<!-- HistoryComponent&#45;&gt;AppModule -->
<g id="edge2" class="edge">
<title>HistoryComponent&#45;&gt;AppModule</title>
<path fill="none" stroke="black" d="M1096,-122.13C1096,-142.57 1096,-173 1096,-173 1096,-173 719.82,-173 719.82,-173"/>
<polygon fill="black" stroke="black" points="719.82,-169.5 709.82,-173 719.82,-176.5 719.82,-169.5"/>
</g>
<!-- HomeComponent -->
<g id="node3" class="node">
<title>HomeComponent</title>
<polygon fill="#ffffb3" stroke="black" points="1016.55,-122 901.45,-122 901.45,-86 1016.55,-86 1016.55,-122"/>
<text text-anchor="middle" x="959" y="-99.8" font-family="Times,serif" font-size="14.00">HomeComponent</text>
</g>
<!-- HomeComponent&#45;&gt;AppModule -->
<g id="edge3" class="edge">
<title>HomeComponent&#45;&gt;AppModule</title>
<path fill="none" stroke="black" d="M959,-122.27C959,-140.56 959,-166 959,-166 959,-166 719.69,-166 719.69,-166"/>
<polygon fill="black" stroke="black" points="719.69,-162.5 709.69,-166 719.69,-169.5 719.69,-162.5"/>
</g>
<!-- LoginComponent -->
<g id="node4" class="node">
<title>LoginComponent</title>
<polygon fill="#ffffb3" stroke="black" points="883.28,-122 768.72,-122 768.72,-86 883.28,-86 883.28,-122"/>
<text text-anchor="middle" x="826" y="-99.8" font-family="Times,serif" font-size="14.00">LoginComponent</text>
</g>
<!-- LoginComponent&#45;&gt;AppModule -->
<g id="edge4" class="edge">
<title>LoginComponent&#45;&gt;AppModule</title>
<path fill="none" stroke="black" d="M826,-122.01C826,-138.05 826,-159 826,-159 826,-159 719.93,-159 719.93,-159"/>
<polygon fill="black" stroke="black" points="719.93,-155.5 709.93,-159 719.93,-162.5 719.93,-155.5"/>
</g>
<!-- NavbarBottomComponent -->
<g id="node5" class="node">
<title>NavbarBottomComponent</title>
<polygon fill="#ffffb3" stroke="black" points="750.04,-122 585.96,-122 585.96,-86 750.04,-86 750.04,-122"/>
<text text-anchor="middle" x="668" y="-99.8" font-family="Times,serif" font-size="14.00">NavbarBottomComponent</text>
</g>
<!-- NavbarBottomComponent&#45;&gt;AppModule -->
<g id="edge5" class="edge">
<title>NavbarBottomComponent&#45;&gt;AppModule</title>
<path fill="none" stroke="black" d="M668,-122.11C668,-122.11 668,-140.99 668,-140.99"/>
<polygon fill="black" stroke="black" points="664.5,-140.99 668,-150.99 671.5,-140.99 664.5,-140.99"/>
</g>
<!-- NavbarComponent -->
<g id="node6" class="node">
<title>NavbarComponent</title>
<polygon fill="#ffffb3" stroke="black" points="567.03,-122 444.97,-122 444.97,-86 567.03,-86 567.03,-122"/>
<text text-anchor="middle" x="506" y="-99.8" font-family="Times,serif" font-size="14.00">NavbarComponent</text>
</g>
<!-- NavbarComponent&#45;&gt;AppModule -->
<g id="edge6" class="edge">
<title>NavbarComponent&#45;&gt;AppModule</title>
<path fill="none" stroke="black" d="M506,-122.01C506,-138.05 506,-159 506,-159 506,-159 616.28,-159 616.28,-159"/>
<polygon fill="black" stroke="black" points="616.28,-162.5 626.28,-159 616.28,-155.5 616.28,-162.5"/>
</g>
<!-- SignupComponent -->
<g id="node7" class="node">
<title>SignupComponent</title>
<polygon fill="#ffffb3" stroke="black" points="426.51,-122 305.49,-122 305.49,-86 426.51,-86 426.51,-122"/>
<text text-anchor="middle" x="366" y="-99.8" font-family="Times,serif" font-size="14.00">SignupComponent</text>
</g>
<!-- SignupComponent&#45;&gt;AppModule -->
<g id="edge7" class="edge">
<title>SignupComponent&#45;&gt;AppModule</title>
<path fill="none" stroke="black" d="M366,-122.27C366,-140.56 366,-166 366,-166 366,-166 616.33,-166 616.33,-166"/>
<polygon fill="black" stroke="black" points="616.33,-169.5 626.33,-166 616.33,-162.5 616.33,-169.5"/>
</g>
<!-- ViewComponent -->
<g id="node8" class="node">
<title>ViewComponent</title>
<polygon fill="#ffffb3" stroke="black" points="287.65,-122 176.35,-122 176.35,-86 287.65,-86 287.65,-122"/>
<text text-anchor="middle" x="232" y="-99.8" font-family="Times,serif" font-size="14.00">ViewComponent</text>
</g>
<!-- ViewComponent&#45;&gt;AppModule -->
<g id="edge8" class="edge">
<title>ViewComponent&#45;&gt;AppModule</title>
<path fill="none" stroke="black" d="M232,-122.13C232,-142.57 232,-173 232,-173 232,-173 616.19,-173 616.19,-173"/>
<polygon fill="black" stroke="black" points="616.19,-176.5 626.19,-173 616.19,-169.5 616.19,-176.5"/>
</g>
<!-- AppComponent  -->
<g id="node11" class="node">
<title>AppComponent </title>
<polygon fill="#80b1d3" stroke="black" points="722.44,-252 613.56,-252 613.56,-216 722.44,-216 722.44,-252"/>
<text text-anchor="middle" x="668" y="-229.8" font-family="Times,serif" font-size="14.00">AppComponent </text>
</g>
<!-- AppModule&#45;&gt;AppComponent  -->
<g id="edge10" class="edge">
<title>AppModule&#45;&gt;AppComponent </title>
<path fill="none" stroke="black" stroke-dasharray="1,5" d="M668,-187.11C668,-187.11 668,-205.99 668,-205.99"/>
<polygon fill="black" stroke="black" points="664.5,-205.99 668,-215.99 671.5,-205.99 664.5,-205.99"/>
</g>
<!-- AppRoutingModule -->
<g id="node10" class="node">
<title>AppRoutingModule</title>
<polygon fill="#8dd3c7" stroke="black" points="152.27,-122 149.27,-126 128.27,-126 125.27,-122 23.73,-122 23.73,-86 152.27,-86 152.27,-122"/>
<text text-anchor="middle" x="88" y="-99.8" font-family="Times,serif" font-size="14.00">AppRoutingModule</text>
</g>
<!-- AppRoutingModule&#45;&gt;AppModule -->
<g id="edge9" class="edge">
<title>AppRoutingModule&#45;&gt;AppModule</title>
<path fill="none" stroke="black" d="M88,-122.01C88,-144.49 88,-180 88,-180 88,-180 616.29,-180 616.29,-180"/>
<polygon fill="black" stroke="black" points="616.29,-183.5 626.29,-180 616.29,-176.5 616.29,-183.5"/>
</g>
</g>
</svg>
