<?xml version="1.0" encoding="UTF-8" standalone="no"?>
<!DOCTYPE svg PUBLIC "-//W3C//DTD SVG 1.1//EN"
 "http://www.w3.org/Graphics/SVG/1.1/DTD/svg11.dtd">
<!-- Generated by graphviz version 2.47.0 (20210316.0004)
 -->
<!-- Title: dependencies Pages: 1 -->
<svg width="1313pt" height="284pt"
 viewBox="0.00 0.00 1313.00 284.00" xmlns="http://www.w3.org/2000/svg" xmlns:xlink="http://www.w3.org/1999/xlink">
<g id="graph0" class="graph" transform="scale(1 1) rotate(0) translate(4 280)">
<title>dependencies</title>
<polygon fill="white" stroke="transparent" points="-4,4 -4,-280 1309,-280 1309,4 -4,4"/>
<text text-anchor="start" x="631.51" y="-42.4" font-family="Times-12" font-weight="bold" font-size="14.00">Legend</text>
<polygon fill="#ffffb3" stroke="transparent" points="418.5,-10 418.5,-30 438.5,-30 438.5,-10 418.5,-10"/>
<text text-anchor="start" x="442.13" y="-15.4" font-family="Times-12" font-size="14.00"> &#160;Declarations</text>
<polygon fill="#8dd3c7" stroke="transparent" points="531.5,-10 531.5,-30 551.5,-30 551.5,-10 531.5,-10"/>
<text text-anchor="start" x="555.23" y="-15.4" font-family="Times-12" font-size="14.00"> &#160;Module</text>
<polygon fill="#80b1d3" stroke="transparent" points="617.5,-10 617.5,-30 637.5,-30 637.5,-10 617.5,-10"/>
<text text-anchor="start" x="641.28" y="-15.4" font-family="Times-12" font-size="14.00"> &#160;Bootstrap</text>
<polygon fill="#fdb462" stroke="transparent" points="714.5,-10 714.5,-30 734.5,-30 734.5,-10 714.5,-10"/>
<text text-anchor="start" x="738.17" y="-15.4" font-family="Times-12" font-size="14.00"> &#160;Providers</text>
<polygon fill="#fb8072" stroke="transparent" points="810.5,-10 810.5,-30 830.5,-30 830.5,-10 810.5,-10"/>
<text text-anchor="start" x="834.23" y="-15.4" font-family="Times-12" font-size="14.00"> &#160;Exports</text>
<g id="clust1" class="cluster">
<title>cluster_AppModule</title>
<polygon fill="none" stroke="black" stroke-dasharray="1,5" points="8,-70 8,-268 1297,-268 1297,-70 8,-70"/>
</g>
<g id="clust11" class="cluster">
<title>cluster_AppModule_imports</title>
<polygon fill="none" stroke="black" points="1145,-78 1145,-130 1289,-130 1289,-78 1145,-78"/>
</g>
<g id="clust13" class="cluster">
<title>cluster_AppModule_bootstrap</title>
<polygon fill="none" stroke="black" points="612,-208 612,-260 736,-260 736,-208 612,-208"/>
</g>
<g id="clust2" class="cluster">
<title>cluster_AppModule_declarations</title>
<polygon fill="none" stroke="black" points="16,-78 16,-130 1137,-130 1137,-78 16,-78"/>
</g>
<!-- AppComponent -->
<g id="node1" class="node">
<title>AppComponent</title>
<polygon fill="#ffffb3" stroke="black" points="1128.94,-122 1023.06,-122 1023.06,-86 1128.94,-86 1128.94,-122"/>
<text text-anchor="middle" x="1076" y="-99.8" font-family="Times,serif" font-size="14.00">AppComponent</text>
</g>
<!-- AppModule -->
<g id="node9" class="node">
<title>AppModule</title>
<polygon fill="#8dd3c7" stroke="black" points="715.66,-187 712.66,-191 691.66,-191 688.66,-187 632.34,-187 632.34,-151 715.66,-151 715.66,-187"/>
<text text-anchor="middle" x="674" y="-164.8" font-family="Times,serif" font-size="14.00">AppModule</text>
</g>
<!-- AppComponent&#45;&gt;AppModule -->
<g id="edge1" class="edge">
<title>AppComponent&#45;&gt;AppModule</title>
<path fill="none" stroke="black" d="M1076,-122.13C1076,-142.57 1076,-173 1076,-173 1076,-173 725.88,-173 725.88,-173"/>
<polygon fill="black" stroke="black" points="725.88,-169.5 715.88,-173 725.88,-176.5 725.88,-169.5"/>
</g>
<!-- HistoryComponent -->
<g id="node2" class="node">
<title>HistoryComponent</title>
<polygon fill="#ffffb3" stroke="black" points="1005.83,-122 882.17,-122 882.17,-86 1005.83,-86 1005.83,-122"/>
<text text-anchor="middle" x="944" y="-99.8" font-family="Times,serif" font-size="14.00">HistoryComponent</text>
</g>
<!-- HistoryComponent&#45;&gt;AppModule -->
<g id="edge2" class="edge">
<title>HistoryComponent&#45;&gt;AppModule</title>
<path fill="none" stroke="black" d="M944,-122.27C944,-140.56 944,-166 944,-166 944,-166 725.89,-166 725.89,-166"/>
<polygon fill="black" stroke="black" points="725.89,-162.5 715.89,-166 725.89,-169.5 725.89,-162.5"/>
</g>
<!-- HomeComponent -->
<g id="node3" class="node">
<title>HomeComponent</title>
<polygon fill="#ffffb3" stroke="black" points="864.55,-122 749.45,-122 749.45,-86 864.55,-86 864.55,-122"/>
<text text-anchor="middle" x="807" y="-99.8" font-family="Times,serif" font-size="14.00">HomeComponent</text>
</g>
<!-- HomeComponent&#45;&gt;AppModule -->
<g id="edge3" class="edge">
<title>HomeComponent&#45;&gt;AppModule</title>
<path fill="none" stroke="black" d="M807,-122.01C807,-138.05 807,-159 807,-159 807,-159 725.72,-159 725.72,-159"/>
<polygon fill="black" stroke="black" points="725.72,-155.5 715.72,-159 725.72,-162.5 725.72,-155.5"/>
</g>
<!-- LoginComponent -->
<g id="node4" class="node">
<title>LoginComponent</title>
<polygon fill="#ffffb3" stroke="black" points="731.28,-122 616.72,-122 616.72,-86 731.28,-86 731.28,-122"/>
<text text-anchor="middle" x="674" y="-99.8" font-family="Times,serif" font-size="14.00">LoginComponent</text>
</g>
<!-- LoginComponent&#45;&gt;AppModule -->
<g id="edge4" class="edge">
<title>LoginComponent&#45;&gt;AppModule</title>
<path fill="none" stroke="black" d="M674,-122.11C674,-122.11 674,-140.99 674,-140.99"/>
<polygon fill="black" stroke="black" points="670.5,-140.99 674,-150.99 677.5,-140.99 670.5,-140.99"/>
</g>
<!-- NavbarBottomComponent -->
<g id="node5" class="node">
<title>NavbarBottomComponent</title>
<polygon fill="#ffffb3" stroke="black" points="598.04,-122 433.96,-122 433.96,-86 598.04,-86 598.04,-122"/>
<text text-anchor="middle" x="516" y="-99.8" font-family="Times,serif" font-size="14.00">NavbarBottomComponent</text>
</g>
<!-- NavbarBottomComponent&#45;&gt;AppModule -->
<g id="edge5" class="edge">
<title>NavbarBottomComponent&#45;&gt;AppModule</title>
<path fill="none" stroke="black" d="M516,-122.01C516,-138.05 516,-159 516,-159 516,-159 622.07,-159 622.07,-159"/>
<polygon fill="black" stroke="black" points="622.07,-162.5 632.07,-159 622.07,-155.5 622.07,-162.5"/>
</g>
<!-- NavbarComponent -->
<g id="node6" class="node">
<title>NavbarComponent</title>
<polygon fill="#ffffb3" stroke="black" points="415.03,-122 292.97,-122 292.97,-86 415.03,-86 415.03,-122"/>
<text text-anchor="middle" x="354" y="-99.8" font-family="Times,serif" font-size="14.00">NavbarComponent</text>
</g>
<!-- NavbarComponent&#45;&gt;AppModule -->
<g id="edge6" class="edge">
<title>NavbarComponent&#45;&gt;AppModule</title>
<path fill="none" stroke="black" d="M354,-122.27C354,-140.56 354,-166 354,-166 354,-166 622.17,-166 622.17,-166"/>
<polygon fill="black" stroke="black" points="622.17,-169.5 632.17,-166 622.17,-162.5 622.17,-169.5"/>
</g>
<!-- SignupComponent -->
<g id="node7" class="node">
<title>SignupComponent</title>
<polygon fill="#ffffb3" stroke="black" points="274.51,-122 153.49,-122 153.49,-86 274.51,-86 274.51,-122"/>
<text text-anchor="middle" x="214" y="-99.8" font-family="Times,serif" font-size="14.00">SignupComponent</text>
</g>
<!-- SignupComponent&#45;&gt;AppModule -->
<g id="edge7" class="edge">
<title>SignupComponent&#45;&gt;AppModule</title>
<path fill="none" stroke="black" d="M214,-122.13C214,-142.57 214,-173 214,-173 214,-173 621.96,-173 621.96,-173"/>
<polygon fill="black" stroke="black" points="621.96,-176.5 631.96,-173 621.96,-169.5 621.96,-176.5"/>
</g>
<!-- ViewComponent -->
<g id="node8" class="node">
<title>ViewComponent</title>
<polygon fill="#ffffb3" stroke="black" points="135.65,-122 24.35,-122 24.35,-86 135.65,-86 135.65,-122"/>
<text text-anchor="middle" x="80" y="-99.8" font-family="Times,serif" font-size="14.00">ViewComponent</text>
</g>
<!-- ViewComponent&#45;&gt;AppModule -->
<g id="edge8" class="edge">
<title>ViewComponent&#45;&gt;AppModule</title>
<path fill="none" stroke="black" d="M80,-122.01C80,-144.49 80,-180 80,-180 80,-180 622.23,-180 622.23,-180"/>
<polygon fill="black" stroke="black" points="622.23,-183.5 632.23,-180 622.23,-176.5 622.23,-183.5"/>
</g>
<!-- AppComponent  -->
<g id="node11" class="node">
<title>AppComponent </title>
<polygon fill="#80b1d3" stroke="black" points="728.44,-252 619.56,-252 619.56,-216 728.44,-216 728.44,-252"/>
<text text-anchor="middle" x="674" y="-229.8" font-family="Times,serif" font-size="14.00">AppComponent </text>
</g>
<!-- AppModule&#45;&gt;AppComponent  -->
<g id="edge10" class="edge">
<title>AppModule&#45;&gt;AppComponent </title>
<path fill="none" stroke="black" stroke-dasharray="1,5" d="M674,-187.11C674,-187.11 674,-205.99 674,-205.99"/>
<polygon fill="black" stroke="black" points="670.5,-205.99 674,-215.99 677.5,-205.99 670.5,-205.99"/>
</g>
<!-- AppRoutingModule -->
<g id="node10" class="node">
<title>AppRoutingModule</title>
<polygon fill="#8dd3c7" stroke="black" points="1281.27,-122 1278.27,-126 1257.27,-126 1254.27,-122 1152.73,-122 1152.73,-86 1281.27,-86 1281.27,-122"/>
<text text-anchor="middle" x="1217" y="-99.8" font-family="Times,serif" font-size="14.00">AppRoutingModule</text>
</g>
<!-- AppRoutingModule&#45;&gt;AppModule -->
<g id="edge9" class="edge">
<title>AppRoutingModule&#45;&gt;AppModule</title>
<path fill="none" stroke="black" d="M1217,-122.01C1217,-144.49 1217,-180 1217,-180 1217,-180 725.71,-180 725.71,-180"/>
<polygon fill="black" stroke="black" points="725.71,-176.5 715.71,-180 725.71,-183.5 725.71,-176.5"/>
</g>
</g>
</svg>
