<?xml version="1.0" encoding="UTF-8" standalone="no"?>
<!DOCTYPE svg PUBLIC "-//W3C//DTD SVG 1.1//EN"
 "http://www.w3.org/Graphics/SVG/1.1/DTD/svg11.dtd">
<!-- Generated by graphviz version 5.0.0 (20220707.1540)
 -->
<!-- Title: dependencies Pages: 1 -->
<svg width="1130pt" height="247pt"
 viewBox="0.00 0.00 1130.00 246.80" xmlns="http://www.w3.org/2000/svg" xmlns:xlink="http://www.w3.org/1999/xlink">
<g id="graph0" class="graph" transform="scale(1 1) rotate(0) translate(4 242.8)">
<title>dependencies</title>
<polygon fill="white" stroke="transparent" points="-4,4 -4,-242.8 1126,-242.8 1126,4 -4,4"/>
<text text-anchor="middle" x="561" y="-8.2" font-family="sans-serif" font-size="14.00">dependencies</text>
<g id="clust1" class="cluster">
<title>cluster_AppModule</title>
<polygon fill="none" stroke="black" stroke-dasharray="1,5" points="8,-32.8 8,-230.8 1114,-230.8 1114,-32.8 8,-32.8"/>
</g>
<g id="clust10" class="cluster">
<title>cluster_AppModule_imports</title>
<polygon fill="none" stroke="black" points="962,-40.8 962,-92.8 1106,-92.8 1106,-40.8 962,-40.8"/>
</g>
<g id="clust12" class="cluster">
<title>cluster_AppModule_bootstrap</title>
<polygon fill="none" stroke="black" points="495,-170.8 495,-222.8 619,-222.8 619,-170.8 495,-170.8"/>
</g>
<g id="clust2" class="cluster">
<title>cluster_AppModule_declarations</title>
<polygon fill="none" stroke="black" points="16,-40.8 16,-92.8 954,-92.8 954,-40.8 16,-40.8"/>
</g>
<!-- AppComponent -->
<g id="node1" class="node">
<title>AppComponent</title>
<polygon fill="#ffffb3" stroke="black" points="945.94,-84.8 840.06,-84.8 840.06,-48.8 945.94,-48.8 945.94,-84.8"/>
<text text-anchor="middle" x="893" y="-62.6" font-family="Times,serif" font-size="14.00">AppComponent</text>
</g>
<!-- AppModule -->
<g id="node8" class="node">
<title>AppModule</title>
<polygon fill="#8dd3c7" stroke="black" points="598.66,-149.8 595.66,-153.8 574.66,-153.8 571.66,-149.8 515.34,-149.8 515.34,-113.8 598.66,-113.8 598.66,-149.8"/>
<text text-anchor="middle" x="557" y="-127.6" font-family="Times,serif" font-size="14.00">AppModule</text>
</g>
<!-- AppComponent&#45;&gt;AppModule -->
<g id="edge1" class="edge">
<title>AppComponent&#45;&gt;AppModule</title>
<path fill="none" stroke="black" d="M893,-84.91C893,-104.14 893,-131.8 893,-131.8 893,-131.8 608.88,-131.8 608.88,-131.8"/>
<polygon fill="black" stroke="black" points="608.88,-128.3 598.88,-131.8 608.88,-135.3 608.88,-128.3"/>
</g>
<!-- HistoryComponent -->
<g id="node2" class="node">
<title>HistoryComponent</title>
<polygon fill="#ffffb3" stroke="black" points="822.83,-84.8 699.17,-84.8 699.17,-48.8 822.83,-48.8 822.83,-84.8"/>
<text text-anchor="middle" x="761" y="-62.6" font-family="Times,serif" font-size="14.00">HistoryComponent</text>
</g>
<!-- HistoryComponent&#45;&gt;AppModule -->
<g id="edge2" class="edge">
<title>HistoryComponent&#45;&gt;AppModule</title>
<path fill="none" stroke="black" d="M761,-84.83C761,-101.2 761,-122.8 761,-122.8 761,-122.8 608.77,-122.8 608.77,-122.8"/>
<polygon fill="black" stroke="black" points="608.77,-119.3 598.77,-122.8 608.77,-126.3 608.77,-119.3"/>
</g>
<!-- HomeComponent -->
<g id="node3" class="node">
<title>HomeComponent</title>
<polygon fill="#ffffb3" stroke="black" points="681.55,-84.8 566.45,-84.8 566.45,-48.8 681.55,-48.8 681.55,-84.8"/>
<text text-anchor="middle" x="624" y="-62.6" font-family="Times,serif" font-size="14.00">HomeComponent</text>
</g>
<!-- HomeComponent&#45;&gt;AppModule -->
<g id="edge3" class="edge">
<title>HomeComponent&#45;&gt;AppModule</title>
<path fill="none" stroke="black" d="M582.53,-84.91C582.53,-84.91 582.53,-103.79 582.53,-103.79"/>
<polygon fill="black" stroke="black" points="579.03,-103.79 582.53,-113.79 586.03,-103.79 579.03,-103.79"/>
</g>
<!-- LoginComponent -->
<g id="node4" class="node">
<title>LoginComponent</title>
<polygon fill="#ffffb3" stroke="black" points="548.27,-84.8 433.73,-84.8 433.73,-48.8 548.27,-48.8 548.27,-84.8"/>
<text text-anchor="middle" x="491" y="-62.6" font-family="Times,serif" font-size="14.00">LoginComponent</text>
</g>
<!-- LoginComponent&#45;&gt;AppModule -->
<g id="edge4" class="edge">
<title>LoginComponent&#45;&gt;AppModule</title>
<path fill="none" stroke="black" d="M531.78,-84.91C531.78,-84.91 531.78,-103.79 531.78,-103.79"/>
<polygon fill="black" stroke="black" points="528.28,-103.79 531.78,-113.79 535.28,-103.79 528.28,-103.79"/>
</g>
<!-- NavbarComponent -->
<g id="node5" class="node">
<title>NavbarComponent</title>
<polygon fill="#ffffb3" stroke="black" points="415.03,-84.8 292.97,-84.8 292.97,-48.8 415.03,-48.8 415.03,-84.8"/>
<text text-anchor="middle" x="354" y="-62.6" font-family="Times,serif" font-size="14.00">NavbarComponent</text>
</g>
<!-- NavbarComponent&#45;&gt;AppModule -->
<g id="edge5" class="edge">
<title>NavbarComponent&#45;&gt;AppModule</title>
<path fill="none" stroke="black" d="M354,-84.83C354,-101.2 354,-122.8 354,-122.8 354,-122.8 504.94,-122.8 504.94,-122.8"/>
<polygon fill="black" stroke="black" points="504.94,-126.3 514.94,-122.8 504.94,-119.3 504.94,-126.3"/>
</g>
<!-- SignupComponent -->
<g id="node6" class="node">
<title>SignupComponent</title>
<polygon fill="#ffffb3" stroke="black" points="274.51,-84.8 153.49,-84.8 153.49,-48.8 274.51,-48.8 274.51,-84.8"/>
<text text-anchor="middle" x="214" y="-62.6" font-family="Times,serif" font-size="14.00">SignupComponent</text>
</g>
<!-- SignupComponent&#45;&gt;AppModule -->
<g id="edge6" class="edge">
<title>SignupComponent&#45;&gt;AppModule</title>
<path fill="none" stroke="black" d="M214,-84.91C214,-104.14 214,-131.8 214,-131.8 214,-131.8 505.28,-131.8 505.28,-131.8"/>
<polygon fill="black" stroke="black" points="505.28,-135.3 515.28,-131.8 505.28,-128.3 505.28,-135.3"/>
</g>
<!-- ViewComponent -->
<g id="node7" class="node">
<title>ViewComponent</title>
<polygon fill="#ffffb3" stroke="black" points="135.66,-84.8 24.34,-84.8 24.34,-48.8 135.66,-48.8 135.66,-84.8"/>
<text text-anchor="middle" x="80" y="-62.6" font-family="Times,serif" font-size="14.00">ViewComponent</text>
</g>
<!-- ViewComponent&#45;&gt;AppModule -->
<g id="edge7" class="edge">
<title>ViewComponent&#45;&gt;AppModule</title>
<path fill="none" stroke="black" d="M80,-85.09C80,-107.01 80,-140.8 80,-140.8 80,-140.8 505.09,-140.8 505.09,-140.8"/>
<polygon fill="black" stroke="black" points="505.09,-144.3 515.09,-140.8 505.09,-137.3 505.09,-144.3"/>
</g>
<!-- AppComponent  -->
<g id="node10" class="node">
<title>AppComponent </title>
<polygon fill="#80b1d3" stroke="black" points="611.44,-214.8 502.56,-214.8 502.56,-178.8 611.44,-178.8 611.44,-214.8"/>
<text text-anchor="middle" x="557" y="-192.6" font-family="Times,serif" font-size="14.00">AppComponent </text>
</g>
<!-- AppModule&#45;&gt;AppComponent  -->
<g id="edge9" class="edge">
<title>AppModule&#45;&gt;AppComponent </title>
<path fill="none" stroke="black" stroke-dasharray="1,5" d="M557,-149.91C557,-149.91 557,-168.79 557,-168.79"/>
<polygon fill="black" stroke="black" points="553.5,-168.79 557,-178.79 560.5,-168.79 553.5,-168.79"/>
</g>
<!-- AppRoutingModule -->
<g id="node9" class="node">
<title>AppRoutingModule</title>
<polygon fill="#8dd3c7" stroke="black" points="1098.28,-84.8 1095.28,-88.8 1074.28,-88.8 1071.28,-84.8 969.72,-84.8 969.72,-48.8 1098.28,-48.8 1098.28,-84.8"/>
<text text-anchor="middle" x="1034" y="-62.6" font-family="Times,serif" font-size="14.00">AppRoutingModule</text>
</g>
<!-- AppRoutingModule&#45;&gt;AppModule -->
<g id="edge8" class="edge">
<title>AppRoutingModule&#45;&gt;AppModule</title>
<path fill="none" stroke="black" d="M1034,-85.09C1034,-107.01 1034,-140.8 1034,-140.8 1034,-140.8 608.91,-140.8 608.91,-140.8"/>
<polygon fill="black" stroke="black" points="608.91,-137.3 598.91,-140.8 608.91,-144.3 608.91,-137.3"/>
</g>
</g>
</svg>
